{
 "asset": {
  "version": "2.0",
  "generator": "gen_skinned_rig.py"
 },
 "scene": 0,
 "scenes": [
  {
   "nodes": [
    0,
    1
   ]
  }
 ],
 "nodes": [
  {
   "name": "SkinnedTube",
   "mesh": 0,
   "skin": 0
  },
  {
   "name": "Joint0",
   "children": [
    2
   ],
   "translation": [
    0.0,
    0.0,
    0.0
   ]
  },
  {
   "name": "Joint1",
   "translation": [
    0.0,
    1.0,
    0.0
   ]
  }
 ],
 "meshes": [
  {
   "name": "SkinnedTube",
   "primitives": [
    {
     "attributes": {
      "POSITION": 0,
      "NORMAL": 1,
      "JOINTS_0": 2,
      "WEIGHTS_0": 3
     },
     "indices": 4,
     "mode": 4
    }
   ]
  }
 ],
 "skins": [
  {
   "joints": [
    1,
    2
   ],
   "skeleton": 1,
   "inverseBindMatrices": 5
  }
 ],
 "animations": [
  {
   "name": "Wave",
   "samplers": [
    {
     "input": 6,
     "output": 7,
     "interpolation": "LINEAR"
    }
   ],
   "channels": [
    {
     "sampler": 0,
     "target": {
      "node": 2,
      "path": "rotation"
     }
    }
   ]
  }
 ],
 "accessors": [
  {
   "bufferView": 0,
   "componentType": 5126,
   "count": 12,
   "type": "VEC3",
   "min": [
    -0.25,
    0.0,
    -0.25
   ],
   "max": [
    0.25,
    2.0,
    0.25
   ]
  },
  {
   "bufferView": 1,
   "componentType": 5126,
   "count": 12,
   "type": "VEC3"
  },
  {
   "bufferView": 2,
   "componentType": 5121,
   "count": 12,
   "type": "VEC4"
  },
  {
   "bufferView": 3,
   "componentType": 5126,
   "count": 12,
   "type": "VEC4"
  },
  {
   "bufferView": 4,
   "componentType": 5123,
   "count": 60,
   "type": "SCALAR"
  },
  {
   "bufferView": 5,
   "componentType": 5126,
   "count": 2,
   "type": "MAT4"
  },
  {
   "bufferView": 6,
   "componentType": 5126,
   "count": 5,
   "type": "SCALAR",
   "min": [
    0.0
   ],
   "max": [
    2.0
   ]
  },
  {
   "bufferView": 7,
   "componentType": 5126,
   "count": 5,
   "type": "VEC4"
  }
 ],
 "bufferViews": [
  {
   "buffer": 0,
   "byteOffset": 0,
   "byteLength": 144,
   "target": 34962
  },
  {
   "buffer": 0,
   "byteOffset": 144,
   "byteLength": 144,
   "target": 34962
  },
  {
   "buffer": 0,
   "byteOffset": 288,
   "byteLength": 48,
   "target": 34962
  },
  {
   "buffer": 0,
   "byteOffset": 336,
   "byteLength": 192,
   "target": 34962
  },
  {
   "buffer": 0,
   "byteOffset": 528,
   "byteLength": 120,
   "target": 34963
  },
  {
   "buffer": 0,
   "byteOffset": 648,
   "byteLength": 128
  },
  {
   "buffer": 0,
   "byteOffset": 776,
   "byteLength": 20
  },
  {
   "buffer": 0,
   "byteOffset": 796,
   "byteLength": 80
  }
 ],
 "buffers": [
  {
   "byteLength": 876,
   "uri": "data:application/octet-stream;base64,"
  }
 ]
}